<?xml version="1.0" encoding="UTF-8" standalone="no"?>
<svg
   xmlns:dc="http://purl.org/dc/elements/1.1/"
   xmlns:cc="http://creativecommons.org/ns#"
   xmlns:rdf="http://www.w3.org/1999/02/22-rdf-syntax-ns#"
   xmlns:svg="http://www.w3.org/2000/svg"
   xmlns="http://www.w3.org/2000/svg"
   xmlns:sodipodi="http://sodipodi.sourceforge.net/DTD/sodipodi-0.dtd"
   xmlns:inkscape="http://www.inkscape.org/namespaces/inkscape"
   width="86.171875mm"
   height="29.681055mm"
   viewBox="0 0 86.171875 29.681055"
   version="1.1"
   id="svg8"
   inkscape:version="1.0.1 (3bc2e813f5, 2020-09-07)"
   sodipodi:docname="logoText.svg">
  <defs
     id="defs2" />
  <sodipodi:namedview
     id="base"
     pagecolor="#222428"
     bordercolor="#666666"
     borderopacity="1.0"
     inkscape:pageopacity="0"
     inkscape:pageshadow="2"
     inkscape:zoom="1.979899"
     inkscape:cx="143.46854"
     inkscape:cy="83.839682"
     inkscape:document-units="mm"
     inkscape:current-layer="text835"
     inkscape:document-rotation="0"
     showgrid="false"
     inkscape:window-width="1920"
     inkscape:window-height="1031"
     inkscape:window-x="-8"
     inkscape:window-y="-8"
     inkscape:window-maximized="1"
     fit-margin-top="0"
     fit-margin-left="0"
     fit-margin-right="0"
     fit-margin-bottom="0" />
  <metadata
     id="metadata5">
    <rdf:RDF>
      <cc:Work
         rdf:about="">
        <dc:format>image/svg+xml</dc:format>
        <dc:type
           rdf:resource="http://purl.org/dc/dcmitype/StillImage" />
        <dc:title></dc:title>
      </cc:Work>
    </rdf:RDF>
  </metadata>
  <g
     inkscape:label="Ebene 1"
     inkscape:groupmode="layer"
     id="layer1">
    <g
       aria-label="Moodly"
       id="text835"
       style="font-style:italic;font-variant:normal;font-weight:normal;font-stretch:normal;font-size:34.1883px;line-height:1.25;font-family:'Brush Script MT';-inkscape-font-specification:'Brush Script MT, Italic';font-variant-ligatures:normal;font-variant-caps:normal;font-variant-numeric:normal;font-variant-east-asian:normal;fill:#ffffff;fill-opacity:1;stroke:none;stroke-width:0.644226;stroke-opacity:0.72905">
      <g
         id="g856">
        <path
           d="m 30.365488,16.793668 v 1.151852 q -1.585883,1.485722 -2.704348,2.403865 -1.101771,0.901449 -2.203543,1.635963 -1.101771,0.717821 -1.836285,1.018304 -0.717821,0.317177 -1.23532,0.317177 -1.235319,0 -2.019914,-0.918143 -0.784595,-0.918143 -0.784595,-2.370478 0,-1.66935 0.66774,-3.305314 0.684434,-1.635964 1.936447,-3.372088 1.252013,-1.752819 3.138379,-3.9229744 1.402255,-1.6025766 1.402255,-1.8028987 0,-0.1168545 -0.08347,-0.200322 -0.08347,-0.083468 -0.183628,-0.083468 -0.317177,0 -1.953141,1.4022546 -1.635963,1.4022545 -4.206763,4.1232965 -2.554107,2.721041 -5.525551,6.47708 -0.166935,0.200323 -1.068384,1.368868 -0.884756,1.151852 -1.252013,1.502416 -0.367257,0.350563 -0.634354,0.350563 -0.467418,0 -0.817981,-0.934836 -0.33387,-0.95153 -0.33387,-2.019914 0,-0.651047 0.417337,-1.402255 0.434031,-0.751208 1.852979,-2.687655 1.435642,-1.95314 2.370478,-3.28862 0.934837,-1.335481 2.053302,-3.2385409 0.784594,-1.318787 1.151852,-2.1033818 0.38395,-0.7845948 0.38395,-1.3855611 0,-0.5174987 -0.300483,-0.5174987 -0.634353,0 -2.387171,1.7027377 -1.752819,1.6860441 -4.340312,5.0247458 -2.5708,3.338701 -5.3753091,7.729093 -0.9181428,1.502416 -1.3020935,2.019915 -0.3839506,0.517498 -0.8513688,0.517498 -0.5842727,0 -1.1017714,-1.235319 -0.5008052,-1.252013 -0.5008052,-2.019914 0,-0.250403 0.2003221,-0.550886 Q 5.1415999,15.241172 6.560548,13.187871 7.979496,11.134569 9.0812674,9.2982836 10.183039,7.4453044 10.683844,6.2600654 11.184649,5.058133 11.184649,4.3736992 q 0,-0.7178208 -0.651047,-0.7178208 -0.5341917,0 -1.8195917,0.6844338 -1.2854,0.6844337 -3.2552337,1.8696727 Q 3.5056363,7.3952238 2.3203974,8.0295771 1.1351584,8.6472368 0.55088567,8.6472368 -3.7252903e-8,8.6472368 -3.7252903e-8,8.0295771 -3.7252903e-8,7.6790135 0.23370905,6.4270005 0.46741814,5.158294 0.71782074,4.6407953 1.0683844,3.973055 2.5040259,2.8712836 3.956361,1.7695122 4.1066025,1.7695122 q 0.1335481,0 0.1335481,0.1168545 0,0.066774 -0.1335481,0.2003221 Q 3.4221688,2.6375745 3.0882986,2.9881382 2.7544285,3.3387018 2.670961,3.7560395 5.7258727,1.9197538 8.1297376,0.96822389 10.550296,5.1781535e-7 11.485132,5.1781535e-7 q 0.467419,0 0.884756,0.63435324218465 0.417338,0.61765974 0.701127,1.45233504 0.300484,0.8179818 0.300484,1.0516909 0,0.8513688 -0.434032,2.0199143 Q 12.503436,6.3101459 11.752228,7.8459485 11.017714,9.3817511 9.9159428,11.685455 10.784005,10.56699 11.5686,9.6154602 12.353195,8.6639303 13.121096,7.762481 q 0.784595,-0.9014494 1.585883,-1.8195922 1.085078,-1.252013 2.437252,-2.3871714 1.352174,-1.151852 2.520719,-1.8696727 1.185239,-0.73451432 1.602577,-0.73451432 0.584273,0 1.034997,0.65104672 0.467419,0.6343533 0.467419,1.3688676 0,0.4841116 -0.634354,1.8529792 -0.634353,1.3688675 -1.852979,3.5056363 -1.218626,2.1367688 -3.221847,5.5088568 1.90306,-2.019914 3.956362,-4.1566828 2.053301,-2.1367688 3.054911,-3.1216857 1.001611,-0.9849168 1.669351,-1.5024155 0.918143,-0.7011273 1.836286,-1.5024156 0.934836,-0.8179818 1.469028,-1.2854 0.534192,-0.4674182 0.95153,-0.7178208 0.417338,-0.2504026 0.767901,-0.2504026 0.434031,0 1.085078,1.0016104 0.66774,1.0016104 0.66774,1.2854 0,0.3505636 -0.400644,0.8346753 -0.38395,0.4841117 -1.61927,1.8028987 -2.270317,2.4372519 -3.939667,4.9245846 -1.669351,2.470639 -2.537413,4.52394 -0.851369,2.036608 -0.851369,3.221847 0,0.734514 0.267096,1.068384 0.28379,0.33387 0.868062,0.33387 0.534192,0 0.984917,-0.200322 0.467418,-0.200322 1.018304,-0.567579 0.567579,-0.367257 1.068384,-0.701127 0.701128,-0.417338 1.368868,-0.884756 0.684434,-0.484112 1.051691,-0.751208 0.383951,-0.28379 0.567579,-0.400644 z"
           style="font-style:italic;font-variant:normal;font-weight:normal;font-stretch:normal;font-size:34.1883px;font-family:'Brush Script MT';-inkscape-font-specification:'Brush Script MT, Italic';font-variant-ligatures:normal;font-variant-caps:normal;font-variant-numeric:normal;font-variant-east-asian:normal;fill:#ffffff;fill-opacity:1;stroke:none;stroke-width:0.644226;stroke-opacity:0.72905"
           id="path837" />
        <path
           d="m 40.982558,16.827055 v 1.118465 q -1.101771,1.00161 -1.769511,1.33548 -0.667741,0.333871 -1.919754,0.267097 -2.170155,2.570799 -3.822812,2.570799 -0.934837,0 -1.702738,-0.617659 -0.767901,-0.61766 -1.23532,-1.686044 -0.450724,-1.068385 -0.450724,-2.387172 0,-1.068384 0.701127,-2.370478 0.717821,-1.302093 1.836286,-2.420558 1.135158,-1.135159 2.420558,-1.819592 1.2854,-0.701128 2.387172,-0.701128 0.784594,0 1.235319,0.250403 0.450725,0.233709 0.450725,0.66774 0,0.33387 -0.383951,0.767902 0.634353,0.133548 0.868062,0.450724 0.233709,0.300483 0.233709,1.118465 0,0.801288 -0.38395,2.019914 -0.367257,1.218626 -1.018304,2.287011 l 0.300483,0.300483 h 0.250403 q 0.283789,0 0.550885,-0.133548 0.28379,-0.150242 0.500806,-0.300483 0.217015,-0.166935 0.951529,-0.717821 z m -3.438862,-4.390392 q -1.385561,0.834675 -2.370478,1.519109 -0.984917,0.66774 -1.66935,1.368867 -0.684434,0.684434 -0.918143,1.385561 -0.417338,1.869673 -0.417338,2.019915 0,1.101771 1.535803,1.101771 0.71782,0 2.403865,-1.235319 -0.28379,-0.784595 -0.28379,-1.502416 0,-1.051691 0.434031,-2.136769 0.434031,-1.101771 1.2854,-2.520719 z"
           style="font-style:italic;font-variant:normal;font-weight:normal;font-stretch:normal;font-size:34.1883px;font-family:'Brush Script MT';-inkscape-font-specification:'Brush Script MT, Italic';font-variant-ligatures:normal;font-variant-caps:normal;font-variant-numeric:normal;font-variant-east-asian:normal;fill:#ffffff;fill-opacity:1;stroke:none;stroke-width:0.644226;stroke-opacity:0.72905"
           id="path839" />
        <path
           d="m 51.683097,16.827055 v 1.118465 q -1.101771,1.00161 -1.769512,1.33548 -0.66774,0.333871 -1.919753,0.267097 -2.170156,2.570799 -3.822813,2.570799 -0.934836,0 -1.702737,-0.617659 -0.767902,-0.61766 -1.23532,-1.686044 -0.450725,-1.068385 -0.450725,-2.387172 0,-1.068384 0.701128,-2.370478 0.71782,-1.302093 1.836285,-2.420558 1.135159,-1.135159 2.420559,-1.819592 1.2854,-0.701128 2.387171,-0.701128 0.784595,0 1.23532,0.250403 0.450724,0.233709 0.450724,0.66774 0,0.33387 -0.38395,0.767902 0.634353,0.133548 0.868062,0.450724 0.233709,0.300483 0.233709,1.118465 0,0.801288 -0.383951,2.019914 -0.367257,1.218626 -1.018303,2.287011 l 0.300483,0.300483 h 0.250402 q 0.28379,0 0.550886,-0.133548 0.28379,-0.150242 0.500805,-0.300483 0.217016,-0.166935 0.95153,-0.717821 z m -3.438862,-4.390392 q -1.385561,0.834675 -2.370478,1.519109 -0.984917,0.66774 -1.669351,1.368867 -0.684434,0.684434 -0.918143,1.385561 -0.417337,1.869673 -0.417337,2.019915 0,1.101771 1.535802,1.101771 0.717821,0 2.403865,-1.235319 -0.283789,-0.784595 -0.283789,-1.502416 0,-1.051691 0.434031,-2.136769 0.434031,-1.101771 1.2854,-2.520719 z"
           style="font-style:italic;font-variant:normal;font-weight:normal;font-stretch:normal;font-size:34.1883px;font-family:'Brush Script MT';-inkscape-font-specification:'Brush Script MT, Italic';font-variant-ligatures:normal;font-variant-caps:normal;font-variant-numeric:normal;font-variant-east-asian:normal;fill:#ffffff;fill-opacity:1;stroke:none;stroke-width:0.644226;stroke-opacity:0.72905"
           id="path841" />
        <path
           d="m 59.27864,16.893829 q -1.469029,1.669351 -2.637574,2.837896 -1.151852,1.168546 -1.886367,1.752818 -0.71782,0.567579 -0.984916,0.567579 -0.434032,0 -0.984917,-0.701127 -0.534193,-0.701127 -0.918143,-1.786205 -0.383951,-1.085078 -0.383951,-2.203543 0,-1.61927 1.56919,-3.255234 1.569189,-1.652657 3.57241,-2.737735 2.003221,-1.085078 3.004831,-1.085078 0.817982,0 1.602577,1.034998 1.2854,-2.6876547 2.437252,-4.774343 1.168545,-2.0866883 1.95314,-3.1049922 0.784595,-1.0183039 1.118465,-1.0183039 0.367257,0 0.66774,0.3672572 0.317177,0.3505636 0.317177,0.8012883 0,0.8680623 -1.268707,2.9881376 -1.268706,2.1033818 -2.504026,4.106603 -1.235319,2.00322 -2.120075,3.956361 -0.884756,1.936446 -0.884756,3.589103 0,1.502416 0.968224,1.502416 0.584272,0 1.469028,-0.651047 0.884756,-0.66774 2.52072,-2.220236 v 1.218626 q -3.605798,4.657488 -5.558938,4.657488 -0.784595,0 -1.135158,-0.600966 -0.33387,-0.600966 -0.33387,-1.786205 0,-1.602577 0.400644,-3.455556 z m 1.235319,-4.073216 q -1.485722,0.500806 -3.488943,1.619271 -2.00322,1.101771 -2.420558,1.519109 -0.367257,0.33387 -0.651047,1.252013 -0.283789,0.918142 -0.283789,1.385561 0,0.283789 0.166935,0.467418 0.166935,0.183628 0.417337,0.183628 0.233709,0 0.534192,-0.200322 0.300484,-0.200322 0.95153,-0.784594 0.667741,-0.584273 0.868063,-0.751208 0.283789,-0.250403 1.252013,-1.068385 0.984917,-0.834675 1.435641,-1.302093 0.450725,-0.467418 0.767901,-1.034998 0.317177,-0.584272 0.450725,-1.2854 z"
           style="font-style:italic;font-variant:normal;font-weight:normal;font-stretch:normal;font-size:34.1883px;font-family:'Brush Script MT';-inkscape-font-specification:'Brush Script MT, Italic';font-variant-ligatures:normal;font-variant-caps:normal;font-variant-numeric:normal;font-variant-east-asian:normal;fill:#ffffff;fill-opacity:1;stroke:none;stroke-width:0.644226;stroke-opacity:0.72905"
           id="path843" />
        <path
           d="m 73.885459,16.676813 v 1.23532 q -3.488942,4.624101 -5.675792,4.624101 -1.185239,0 -1.869672,-1.2854 -0.667741,-1.302093 -0.667741,-3.405475 0,-1.702738 0.801289,-4.039829 0.801288,-2.353784 2.136768,-4.757649 1.352174,-2.4205584 2.787816,-4.2067636 1.452335,-1.8028987 2.687654,-2.5207195 0.500806,-0.3004831 0.784595,-0.3004831 0.350564,0 0.467418,0.3171766 0.116855,0.3004831 0.116855,1.0516909 0,2.3203974 -1.886366,5.7091792 -1.886366,3.3720885 -5.258455,6.8944185 -0.166935,0.868062 -0.166935,1.33548 0,1.068385 0.450725,1.736125 0.467418,0.66774 1.2854,0.66774 0.417338,0 0.901449,-0.317177 0.484112,-0.33387 1.018304,-0.817981 0.534192,-0.484112 2.086688,-1.919754 z m -4.991358,-3.004831 q 0.868062,-0.851369 1.669351,-1.936446 0.817981,-1.085078 1.535802,-2.3203979 0.717821,-1.2353195 1.118465,-2.2202363 0.417338,-0.9849169 0.417338,-1.4857221 0,-0.3839506 -0.267096,-0.3839506 -0.100161,0 -0.383951,0.1836285 -1.018304,0.8346753 -2.28701,3.2719273 -1.268707,2.4205581 -1.802899,4.8911971 z"
           style="font-style:italic;font-variant:normal;font-weight:normal;font-stretch:normal;font-size:34.1883px;font-family:'Brush Script MT';-inkscape-font-specification:'Brush Script MT, Italic';font-variant-ligatures:normal;font-variant-caps:normal;font-variant-numeric:normal;font-variant-east-asian:normal;fill:#ffffff;fill-opacity:1;stroke:none;stroke-width:0.644226;stroke-opacity:0.72905"
           id="path845" />
        <path
           d="m 80.980195,17.511489 -2.971445,2.520719 q -2.120075,1.852979 -2.837896,1.852979 -0.651046,0 -1.368867,-1.485722 -0.717821,-1.502415 -0.717821,-2.62088 0,-0.95153 0.28379,-1.602577 0.300483,-0.66774 1.018304,-1.719431 1.018303,-1.418948 1.95314,-2.403865 0.934836,-0.984917 1.652657,-1.519109 0.717821,-0.5508857 1.00161,-0.5508857 0.450725,0 0.868063,0.4674187 0.434031,0.467418 0.434031,0.968223 0,0.317177 -0.467418,1.018304 -0.450725,0.701127 -1.452335,1.786205 -0.984917,1.068384 -2.754429,2.5708 l -0.317177,0.918143 q -0.133548,0.267096 -0.133548,0.467418 0,0.450725 0.450725,0.450725 0.467418,0 2.186849,-1.185239 1.736125,-1.185239 3.756039,-3.18846 0.784595,-0.784595 1.302094,-1.385561 0.517499,-0.600966 0.934836,-1.118465 0.417338,-0.534192 0.684434,-0.801288 0.28379,-0.267096 0.500805,-0.28379 0.417338,-0.05008 0.651047,0.350564 0.233709,0.400644 0.233709,1.185239 0,0.450724 -0.400644,1.135158 -0.400644,0.66774 -1.502416,2.303704 -1.101771,1.61927 -2.203543,3.372088 -1.085078,1.736125 -2.220236,3.922974 0.05008,-0.05008 1.018304,-1.00161 0.984917,-0.95153 2.069995,-1.986527 1.085078,-1.034998 1.786205,-1.652657 0.701127,-0.634354 1.752818,-1.469029 v 1.118465 q -2.253623,2.420558 -4.089909,4.590714 -1.819592,2.170156 -2.821203,3.472249 -0.984916,1.302094 -1.151852,1.51911 -0.450724,0.584272 -0.817981,1.085077 -0.350564,0.517499 -0.600967,0.784595 -0.233709,0.28379 -0.38395,0.28379 -0.350564,0 -0.634353,-0.701127 -0.267097,-0.684434 -0.267097,-1.218626 0,-0.484112 0.183629,-0.851369 1.201932,-2.704348 5.392003,-9.398444 z"
           style="font-style:italic;font-variant:normal;font-weight:normal;font-stretch:normal;font-size:34.1883px;font-family:'Brush Script MT';-inkscape-font-specification:'Brush Script MT, Italic';font-variant-ligatures:normal;font-variant-caps:normal;font-variant-numeric:normal;font-variant-east-asian:normal;fill:#ffffff;fill-opacity:1;stroke:none;stroke-width:0.644226;stroke-opacity:0.72905"
           id="path847" />
      </g>
    </g>
  </g>
</svg>
